<svg id="Layer_1" data-name="Layer 1" xmlns="http://www.w3.org/2000/svg" viewBox="0 0 1080 1080"><defs><style>.cls-1{fill:#0054b4;}.cls-2{fill:none;}.cls-3{fill:#fff;}</style></defs><title>logo-HR-Sabai</title><rect class="cls-1" width="1080" height="1080"/><path class="cls-2" d="M577.55,749.34c-17.42,0-31.35,13.94-31.35,32s13.93,32.22,31.35,32.22c17.63,0,31.34-14.15,31.34-32.22S595.18,749.34,577.55,749.34Z"/><path class="cls-2" d="M438.32,750.83c-21.12-4.65-38.92,10.67-38.92,30.51a31.26,31.26,0,0,0,31.35,31.57c21,0,36.58-20.54,29.32-42.58A29.63,29.63,0,0,0,438.32,750.83Z"/><path class="cls-2" d="M718.64,750.83c-21.12-4.65-38.92,10.67-38.92,30.51a31.26,31.26,0,0,0,31.35,31.57c21,0,36.58-20.54,29.32-42.58A29.63,29.63,0,0,0,718.64,750.83Z"/><path class="cls-3" d="M817.29,591.48V582.7C817.28,585.81,817.28,588.73,817.29,591.48Z"/><path class="cls-3" d="M287,710.16c0-9.8,7.4-17,18.28-17,10,0,17,6.09,19.38,16.54L350.14,698c-6.31-18.72-23.73-31.35-45.5-31.35-25.25,0-45.72,16.76-45.72,44.41,0,50.94,69.23,42.23,69.23,75.76,0,13.49-9.8,23.72-24.6,23.72-13.28,0-24.16-8.27-27.86-22L250,800.06c6.75,22.43,28.3,38.54,54.42,38.54,29.39,0,52-20.46,52-51.38C356.45,732.8,287,740,287,710.16Z"/><path class="cls-3" d="M461,739.11c-8.06-9.36-20-15-35.7-15-29.61,0-54.21,25.47-54.21,57.25,0,32,24.6,57.26,54.21,57.26,16.32,0,28.73-6.1,37-16.33l.65,14.15h26.34V726.7H461Zm-22.67,72.94c-21.13,4.74-38.94-10.86-38.94-30.71A31.08,31.08,0,0,1,430.75,750c21,0,36.55,20.18,29.34,42.32A29.8,29.8,0,0,1,438.34,812.05Z"/><path class="cls-3" d="M582.34,724.09c-13.5,0-26.56,5-35.05,15V668.8H519V836.42h26.35l.65-14.15c8.27,10.23,21.12,16.33,36.36,16.33,30.69,0,54.85-25.25,54.85-57.26C637.19,749.56,613,724.09,582.34,724.09Zm-4.79,89.47c-17.42,0-31.35-14.15-31.35-32.22s13.93-32,31.35-32c17.63,0,31.34,13.94,31.34,32S595.18,813.56,577.55,813.56Z"/><path class="cls-3" d="M741.33,739.11c-8.06-9.36-20-15-35.7-15-29.61,0-54.21,25.47-54.21,57.25,0,32,24.6,57.26,54.21,57.26,16.32,0,28.73-6.1,37-16.33l.65,14.15h26.34V726.7h-28.3Zm-22.67,72.94c-21.13,4.74-38.94-10.86-38.94-30.71A31.08,31.08,0,0,1,711.07,750c21,0,36.55,20.18,29.34,42.32A29.8,29.8,0,0,1,718.66,812.05Z"/><path class="cls-3" d="M816.71,675a16.35,16.35,0,1,0-3.26,32.34A16.36,16.36,0,0,0,830,691.53,16.53,16.53,0,0,0,816.71,675Z"/><rect class="cls-3" x="799.52" y="726.7" width="27.86" height="109.72"/><path class="cls-3" d="M829.79,559.68c0-80.65-25.6-90.66-67.89-106.25,46.73-12.82,67.32-51.74,67.32-97.95,0-77.88-29.65-114.08-163.19-114.08H491.13v1.47h0V378.1H367V242.87H250V643.5H367V488.29H491.09V643.5H591.83V507.77a61,61,0,0,1,29.53-52.31h-.22L654,435.89l.17-.1-26.65-14h.09A59.27,59.27,0,0,1,597.69,375h-.2V333a10,10,0,0,1,10-10H706a10,10,0,0,1,10,10V375h-.2a59.27,59.27,0,0,1-29.89,46.83H686l-26.67,14,.15.09,32.38,19.57h-.26a61.06,61.06,0,0,1,29.52,52.31V642h108.6V588.57q0-4.52,0-9.62C829.76,573.12,829.79,566.71,829.79,559.68Z"/><path class="cls-3" d="M700.15,613.51a43.15,43.15,0,0,0-3.95-14.93c-17.55,2-23.52,11.14-39.74,19.46-12.21,6.26-32,6.4-43.84,5.8v18.85h87.69V615.2h0Z"/><circle class="cls-3" cx="661.68" cy="479.08" r="10.47"/><circle class="cls-3" cx="638.77" cy="516.39" r="7.2"/><circle class="cls-3" cx="678.69" cy="544.53" r="6.54"/><path class="cls-3" d="M617.26,387.24a43.63,43.63,0,0,0,18.07,19.59l1,.54,20.46,10.75,20.43-10.73,1-.56a43.7,43.7,0,0,0,7.13-5.06c-5.73-.32-15.2-1.95-28.56-7.72C642.29,387.81,627,387,617.26,387.24Z"/></svg>